<?xml version="1.0" encoding="UTF-8"?>
<svg xmlns="http://www.w3.org/2000/svg" viewBox="0 0 1240 752" width="1240" height="752" role="img" aria-labelledby="definit-lifecycle-title definit-lifecycle-desc">
  <title id="definit-lifecycle-title">How a DEFINIT action becomes settlement</title>
  <desc id="definit-lifecycle-desc">An action is adjudicated by independent validators and lands as ACCEPTED, which is provisional and still appealable. Releasing value at that point is refused while the appeal window is open. Only once the decision is FINALIZED may the escrow be released into SETTLEMENT.</desc>
  <g stroke-linecap="round" stroke-linejoin="round" shape-rendering="geometricPrecision">
  <path d="M493.37 44.31 L745.88 42.90 L743.33 112.38 L494.41 110.43 Z" fill="#F3E7CE" stroke="none" /><path d="M374.18 176.36 L866.15 176.42 L864.77 269.06 L375.10 267.02 Z" fill="#F5F1E8" stroke="none" /><path d="M494.69 327.32 L745.28 327.34 L745.95 398.06 L496.19 398.10 Z" fill="#F6E9CF" stroke="none" /><path d="M496.07 482.75 L743.69 483.12 L746.24 553.01 L495.72 554.26 Z" fill="#DCEDE6" stroke="none" /><path d="M468.72 612.75 L769.55 611.76 L770.89 683.65 L469.62 684.83 Z" fill="#DCEDE6" stroke="none" />
  <g stroke="#96691F" stroke-width="2" fill="none"><path d="M494.31 43.91 C552.58 46.40 610.86 46.40 744.31 43.91 M496.66 43.33 C554.94 45.81 613.22 45.81 746.66 43.33" /><path d="M745.07 44.52 C745.06 69.28 745.06 94.05 745.07 112.52 M744.03 42.04 C744.02 66.80 744.02 91.56 744.03 110.04" /><path d="M745.41 112.24 C681.97 113.99 618.53 113.99 495.41 112.24 M744.05 112.52 C680.62 114.28 617.18 114.28 494.05 112.52" /><path d="M494.87 111.18 C494.86 90.68 494.86 70.19 494.87 43.18 M494.33 111.55 C494.31 91.05 494.31 70.56 494.33 43.55" /></g><g stroke="#4A5058" stroke-width="2" fill="none"><path d="M375.49 175.86 C516.59 173.93 657.69 173.93 865.49 175.86 M374.59 177.00 C515.69 175.07 656.79 175.07 864.59 177.00" /><path d="M865.14 174.85 C865.66 209.16 865.66 243.47 865.14 266.85 M863.92 177.54 C864.43 211.85 864.43 246.16 863.92 269.54" /><path d="M864.52 267.49 C720.71 265.18 576.90 265.18 374.52 267.49 M864.04 268.23 C720.23 265.92 576.42 265.92 374.04 268.23" /><path d="M373.96 267.22 C375.00 248.20 375.00 229.18 373.96 175.22 M374.01 266.14 C375.05 247.12 375.05 228.09 374.01 174.14" /></g><g stroke="#A9700F" stroke-width="2" fill="none"><path d="M494.41 326.04 C570.53 323.93 646.64 323.93 744.41 326.04 M495.21 326.79 C571.32 324.68 647.44 324.68 745.21 326.79" /><path d="M745.65 325.11 C745.63 348.50 745.63 371.88 745.65 397.11 M742.60 327.33 C742.58 350.72 742.58 374.10 742.60 399.33" /><path d="M744.64 398.99 C672.57 400.50 600.49 400.50 494.64 398.99 M746.53 396.20 C674.46 397.71 602.39 397.71 496.53 396.20" /><path d="M495.48 398.98 C496.31 370.94 496.31 342.91 495.48 326.98 M494.94 397.98 C495.77 369.95 495.77 341.91 494.94 325.98" /></g><g stroke="#1B6A53" stroke-width="2" fill="none"><path d="M495.46 483.00 C546.64 481.67 597.81 481.67 745.46 483.00 M496.25 481.52 C547.43 480.19 598.60 480.19 746.25 481.52" /><path d="M745.00 481.05 C745.43 507.34 745.43 533.63 745.00 553.05 M743.52 482.95 C743.96 509.24 743.96 535.53 743.52 554.95" /><path d="M745.95 554.24 C678.60 554.16 611.25 554.16 495.95 554.24 M744.49 554.24 C677.14 554.16 609.79 554.16 494.49 554.24" /><path d="M494.09 554.07 C494.46 539.14 494.46 524.22 494.09 482.07 M493.62 553.89 C493.99 538.96 493.99 524.04 493.62 481.89" /></g><g stroke="#14513F" stroke-width="2" fill="none"><path d="M469.25 612.19 C535.11 613.11 600.97 613.11 769.25 612.19 M470.92 611.61 C536.78 612.54 602.64 612.54 770.92 611.61" /><path d="M770.72 611.63 C770.38 635.13 770.38 658.63 770.72 683.63 M768.75 613.07 C768.41 636.57 768.41 660.08 768.75 685.07" /><path d="M770.35 683.88 C672.94 684.81 575.53 684.81 470.35 683.88 M770.24 684.97 C672.83 685.90 575.42 685.90 470.24 684.97" /><path d="M470.68 683.86 C470.80 655.42 470.80 626.98 470.68 611.86 M472.40 683.35 C472.53 654.91 472.53 626.47 472.40 611.35" /></g>
  <g stroke="#4A5058" stroke-width="2" fill="none"><path d="M619.56 111.65 C619.55 135.57 619.55 159.50 619.56 175.65 M619.86 112.02 C619.85 135.94 619.85 159.87 619.86 176.02" /><path d="M620.57 176.49 C619.18 173.25 617.75 170.03 615.68 165.53 M619.97 175.79 C618.58 172.55 617.14 169.33 615.08 164.83" /><path d="M620.53 176.18 C622.20 172.53 623.84 168.87 625.42 165.22 M621.09 175.83 C622.76 172.19 624.40 168.53 625.98 164.88" /></g><g stroke="#4A5058" stroke-width="2" fill="none"><path d="M619.28 267.44 C618.88 286.85 618.88 306.26 619.28 325.44 M619.22 269.37 C618.82 288.79 618.82 308.20 619.22 327.37" /><path d="M619.77 325.92 C618.11 322.32 616.50 318.69 614.87 314.96 M618.90 326.98 C617.24 323.38 615.63 319.76 614.00 316.02" /><path d="M620.10 325.64 C621.84 321.65 623.63 317.65 624.99 314.69 M619.14 327.13 C620.88 323.14 622.67 319.13 624.03 316.17" /></g><g stroke="#1B6A53" stroke-width="2" fill="none"><path d="M619.51 398.72 C620.13 426.07 620.13 453.42 619.51 482.72 M620.01 398.14 C620.63 425.49 620.63 452.84 620.01 482.14" /><path d="M620.38 482.54 C619.00 479.37 617.56 476.15 615.49 471.58 M620.32 481.16 C618.94 477.99 617.50 474.78 615.43 470.21" /><path d="M620.28 481.58 C622.03 477.51 623.87 473.39 625.17 470.63 M620.37 481.26 C622.11 477.19 623.95 473.07 625.26 470.31" /></g><g stroke="#8F3A2E" stroke-width="2" fill="none" stroke-dasharray="9 7"><path d="M744.24 361.26 C808.94 359.96 873.65 359.96 1019.24 361.26 M745.12 363.12 C809.82 361.82 874.53 361.82 1020.12 363.12" /><path d="M1020.08 362.74 C1020.46 430.44 1020.46 498.13 1020.08 648.74 M1019.03 363.04 C1019.40 430.73 1019.40 498.42 1019.03 649.04" /><path d="M1020.46 647.25 C953.62 648.98 886.78 648.98 770.46 647.25 M1019.64 647.46 C952.80 649.19 885.96 649.19 769.64 647.46" /><path d="M770.32 647.65 C773.62 646.26 776.91 644.80 781.27 642.75 M770.86 648.34 C774.16 646.96 777.45 645.49 781.81 643.45" /><path d="M770.55 647.98 C773.16 649.08 775.81 650.26 781.51 652.88 M770.76 648.08 C773.37 649.17 776.02 650.35 781.72 652.97" /></g>
  <g stroke="#8F3A2E" stroke-width="2.6" fill="none"><path d="M997.05 448.34 C1011.42 462.17 1026.26 475.66 1041.05 488.34 M997.41 446.75 C1011.78 460.58 1026.62 474.07 1041.41 486.75" /><path d="M1042.51 448.88 C1027.30 463.12 1011.96 477.07 998.51 488.88 M1040.17 448.94 C1024.96 463.19 1009.62 477.13 996.17 488.94" /></g>
  <g><text text-anchor="middle" font-family="JetBrains Mono, SFMono-Regular, Cascadia Mono, Consolas, monospace" font-size="20" font-weight="600" fill="#131518"><tspan x="620" y="76.40">ACTION</tspan></text>
  <text text-anchor="middle" font-family="JetBrains Mono, SFMono-Regular, Cascadia Mono, Consolas, monospace" font-size="20" font-weight="600" fill="#131518"><tspan x="620" y="208.40">ADJUDICATION</tspan></text>
  <text text-anchor="middle" font-family="Manrope, Segoe UI Variable Text, Segoe UI, Helvetica Neue, Arial, sans-serif" font-size="14" font-weight="400" fill="#6B7078"><tspan x="620" y="231.48">validators independently inspect the same evidence</tspan></text>
  <text text-anchor="middle" font-family="JetBrains Mono, SFMono-Regular, Cascadia Mono, Consolas, monospace" font-size="20" font-weight="600" fill="#A9700F"><tspan x="620" y="356.40">ACCEPTED</tspan></text>
  <text text-anchor="middle" font-family="Manrope, Segoe UI Variable Text, Segoe UI, Helvetica Neue, Arial, sans-serif" font-size="13" font-weight="400" fill="#A9700F"><tspan x="620" y="376.66">provisional, still appealable</tspan></text>
  <text text-anchor="middle" font-family="JetBrains Mono, SFMono-Regular, Cascadia Mono, Consolas, monospace" font-size="20" font-weight="600" fill="#1B6A53"><tspan x="620" y="512.40">FINALIZED</tspan></text>
  <text text-anchor="middle" font-family="Manrope, Segoe UI Variable Text, Segoe UI, Helvetica Neue, Arial, sans-serif" font-size="13" font-weight="400" fill="#1B6A53"><tspan x="620" y="532.66">the authority to move value</tspan></text>
  <text text-anchor="middle" font-family="JetBrains Mono, SFMono-Regular, Cascadia Mono, Consolas, monospace" font-size="20" font-weight="600" fill="#14513F"><tspan x="620" y="646.40">SETTLEMENT</tspan></text>
  <text text-anchor="middle" font-family="Manrope, Segoe UI Variable Text, Segoe UI, Helvetica Neue, Arial, sans-serif" font-size="13" font-weight="400" fill="#14513F"><tspan x="620" y="666.66">irreversible</tspan></text>
  <text text-anchor="start" font-family="Manrope, Segoe UI Variable Text, Segoe UI, Helvetica Neue, Arial, sans-serif" font-size="15" font-weight="600" fill="#8F3A2E"><tspan x="1046" y="468.30">NO SETTLEMENT</tspan></text>
  <text text-anchor="start" font-family="Manrope, Segoe UI Variable Text, Segoe UI, Helvetica Neue, Arial, sans-serif" font-size="13" font-weight="400" fill="#6B7078"><tspan x="1046" y="488.66">refused while the</tspan></text>
  <text text-anchor="start" font-family="Manrope, Segoe UI Variable Text, Segoe UI, Helvetica Neue, Arial, sans-serif" font-size="13" font-weight="400" fill="#6B7078"><tspan x="1046" y="506.66">window is open</tspan></text>
  <text text-anchor="start" font-family="Manrope, Segoe UI Variable Text, Segoe UI, Helvetica Neue, Arial, sans-serif" font-size="13" font-weight="400" fill="#6B7078"><tspan x="40" y="724.66">ACCEPTED is a provisional record. Only FINALIZED authorises release, and release is the only step that moves value.</tspan></text></g>
  </g>
</svg>
